<svg width="18" height="18" viewBox="0 0 18 18" fill="none" xmlns="http://www.w3.org/2000/svg">
<path d="M3.37498 4.5C3.37498 4.35082 3.43425 4.20774 3.53974 4.10225C3.64523 3.99676 3.7883 3.9375 3.93748 3.9375H5.06248V2.8125C5.06248 2.66332 5.12175 2.52024 5.22724 2.41475C5.33273 2.30926 5.4758 2.25 5.62498 2.25C5.77417 2.25 5.91724 2.30926 6.02273 2.41475C6.12822 2.52024 6.18748 2.66332 6.18748 2.8125V3.9375H7.31248C7.46167 3.9375 7.60474 3.99676 7.71023 4.10225C7.81572 4.20774 7.87498 4.35082 7.87498 4.5C7.87498 4.64918 7.81572 4.79226 7.71023 4.89775C7.60474 5.00324 7.46167 5.0625 7.31248 5.0625H6.18748V6.1875C6.18748 6.33668 6.12822 6.47976 6.02273 6.58525C5.91724 6.69074 5.77417 6.75 5.62498 6.75C5.4758 6.75 5.33273 6.69074 5.22724 6.58525C5.12175 6.47976 5.06248 6.33668 5.06248 6.1875V5.0625H3.93748C3.7883 5.0625 3.64523 5.00324 3.53974 4.89775C3.43425 4.79226 3.37498 4.64918 3.37498 4.5ZM12.9375 13.5H12.375V12.9375C12.375 12.7883 12.3157 12.6452 12.2102 12.5398C12.1047 12.4343 11.9617 12.375 11.8125 12.375C11.6633 12.375 11.5202 12.4343 11.4147 12.5398C11.3092 12.6452 11.25 12.7883 11.25 12.9375V13.5H10.6875C10.5383 13.5 10.3952 13.5593 10.2897 13.6648C10.1842 13.7702 10.125 13.9133 10.125 14.0625C10.125 14.2117 10.1842 14.3548 10.2897 14.4602C10.3952 14.5657 10.5383 14.625 10.6875 14.625H11.25V15.1875C11.25 15.3367 11.3092 15.4798 11.4147 15.5852C11.5202 15.6907 11.6633 15.75 11.8125 15.75C11.9617 15.75 12.1047 15.6907 12.2102 15.5852C12.3157 15.4798 12.375 15.3367 12.375 15.1875V14.625H12.9375C13.0867 14.625 13.2297 14.5657 13.3352 14.4602C13.4407 14.3548 13.5 14.2117 13.5 14.0625C13.5 13.9133 13.4407 13.7702 13.3352 13.6648C13.2297 13.5593 13.0867 13.5 12.9375 13.5ZM16.875 10.125H15.75V9C15.75 8.85082 15.6907 8.70774 15.5852 8.60225C15.4797 8.49676 15.3367 8.4375 15.1875 8.4375C15.0383 8.4375 14.8952 8.49676 14.7897 8.60225C14.6842 8.70774 14.625 8.85082 14.625 9V10.125H13.5C13.3508 10.125 13.2077 10.1843 13.1022 10.2898C12.9967 10.3952 12.9375 10.5383 12.9375 10.6875C12.9375 10.8367 12.9967 10.9798 13.1022 11.0852C13.2077 11.1907 13.3508 11.25 13.5 11.25H14.625V12.375C14.625 12.5242 14.6842 12.6673 14.7897 12.7727C14.8952 12.8782 15.0383 12.9375 15.1875 12.9375C15.3367 12.9375 15.4797 12.8782 15.5852 12.7727C15.6907 12.6673 15.75 12.5242 15.75 12.375V11.25H16.875C17.0242 11.25 17.1672 11.1907 17.2727 11.0852C17.3782 10.9798 17.4375 10.8367 17.4375 10.6875C17.4375 10.5383 17.3782 10.3952 17.2727 10.2898C17.1672 10.1843 17.0242 10.125 16.875 10.125ZM15.4202 5.625L5.62498 15.4202C5.41403 15.6311 5.12799 15.7495 4.82975 15.7495C4.53151 15.7495 4.24547 15.6311 4.03452 15.4202L2.57905 13.9662C2.47455 13.8617 2.39166 13.7377 2.33511 13.6012C2.27856 13.4647 2.24945 13.3183 2.24945 13.1706C2.24945 13.0228 2.27856 12.8765 2.33511 12.74C2.39166 12.6035 2.47455 12.4795 2.57905 12.375L12.375 2.57977C12.4795 2.47527 12.6035 2.39238 12.74 2.33583C12.8765 2.27928 13.0228 2.25017 13.1706 2.25017C13.3183 2.25017 13.4646 2.27928 13.6011 2.33583C13.7377 2.39238 13.8617 2.47527 13.9662 2.57977L15.4202 4.03383C15.5247 4.1383 15.6076 4.26233 15.6642 4.39884C15.7207 4.53534 15.7498 4.68166 15.7498 4.82941C15.7498 4.97717 15.7207 5.12348 15.6642 5.25999C15.6076 5.3965 15.5247 5.52053 15.4202 5.625ZM11.579 7.875L10.125 6.42023L3.37498 13.1702L4.82905 14.625L11.579 7.875ZM14.625 4.82977L13.1702 3.375L10.9202 5.625L12.375 7.07977L14.625 4.82977Z" fill="white"/>
</svg>
