<svg width="200" height="201" viewBox="0 0 200 201" fill="none" xmlns="http://www.w3.org/2000/svg">
  <path d="M115.835 70.4351L116.191 70.791L116.547 70.4351H115.835Z" fill="#EF7571"/>
  <path d="M73.4317 149.38L73.4414 149.39H73.4609L73.4512 149.38H73.4317Z" fill="#EF7571"/>
  <path d="M38.1524 130.558L68.6189 161.039H161.038V79.8453H79.8917V100.015H61.081V61.0234H179.849V179.861H60.8279L11.5506 130.558H38.1524ZM115.837 70.4344L116.193 70.7903L116.549 70.4344H115.837Z" fill="#EF7571"/>
  <path d="M115.836 70.4353L116.192 70.7912L116.548 70.4353H115.836Z" fill="#EF7571"/>
  <path d="M102.485 30.5525H102.581L102.533 30.5046L102.485 30.5525Z" fill="#343434"/>
  <path d="M0.000228882 0V118.838H118.768V79.8457H99.9571V100.016H18.811V18.8219H111.315L122.992 30.5051L125.225 32.7398L141.765 49.2927H168.37L119.106 0H0.000228882Z" fill="#EF7571"/>
  <path d="M54.7022 130.559V130.641L70.4862 146.434L73.4309 149.381H73.4514L73.4617 149.391H149.327V79.8462H130.516V130.569H108.504V130.559H54.7022Z" fill="#D30E0D"/>
  <path d="M102.484 30.5525H102.58L102.532 30.5046L102.484 30.5525Z" fill="#D30E0D"/>
  <path d="M166 179.862L186.699 200.57L200 187.261L179.849 167.098V179.862H166Z" fill="#343434"/>
  <path d="M122.942 30.5046L125.227 32.7872V32.7393L122.993 30.5046H122.942Z" fill="#343434"/>
  <path d="M30.5606 30.5527V100.016H49.3714V49.3746H109.364V49.2925H125.227L106.498 30.5527H30.5606Z" fill="#D30E0D"/>
  <path d="M109.364 49.2922H125.227V49.3744H109.364V49.2922Z" fill="#D30E0D"/>
  <path d="M71.4255 30.5046V30.5525H106.479L106.431 30.5046H71.4255Z" fill="#D30E0D"/>
  <path d="M73.4612 149.391L73.4988 149.428H108.504V149.391H73.4612Z" fill="#343434"/>
</svg>
